<svg xmlns="http://www.w3.org/2000/svg" width="137" height="41" viewBox="0 0 137 41">
    <path fill="#3A89DB" fill-rule="nonzero" d="M14.214 8.825h4.603c2.572 0 3.926-.68 3.926-2.037 0-.543-.27-.95-.812-1.222-.542-.271-1.219-.543-2.166-.543-1.354 0-2.572.407-3.79 1.222-1.084.679-1.76 1.493-1.76 2.58zm2.166 4.615l1.76 2.173 1.083 1.221c1.896 2.444 2.979 4.888 2.979 7.603 0 2.58-.948 4.888-2.708 6.788-2.301 2.715-5.415 4.073-9.34 4.073-2.98 0-5.416-.95-7.311-2.715C.948 30.818 0 28.51 0 25.659c0-3.394 1.49-6.38 4.467-8.689 1.625-1.222 2.979-1.9 4.332-1.9.677 0 1.219.135 1.625.543.406.407.677.95.677 1.493 0 .815-.542 1.493-1.49 2.172l-1.488.95c-.948.544-1.625 1.358-2.166 2.308-.542.95-.948 1.901-.813 2.851 0 1.494.542 2.716 1.49 3.802 1.082.95 2.3 1.493 3.925 1.493 1.76 0 3.25-.679 4.603-1.9 1.354-1.222 1.895-2.852 1.895-4.48a6.32 6.32 0 0 0-.812-3.123c-.541-.95-1.624-2.308-3.384-4.209-1.219-1.357-2.031-2.444-2.572-3.53H5.144c-1.76 0-2.707-.543-2.707-1.765 0-.814.27-1.493.947-2.036.542-.407 1.49-.679 2.573-.679h3.249c.27-2.443 1.353-4.616 3.52-6.245C14.755 1.086 17.192.272 20.17.272c2.166 0 3.926.543 5.28 1.764 1.353 1.222 2.03 2.716 2.03 4.616 0 2.444-1.083 4.345-3.249 5.702-1.218.68-3.113 1.086-5.82 1.086H16.38zm16.516-1.357h.542c1.624 0 2.437.543 2.437 1.765 0 .814-.271 1.357-.813 1.765-.541.407-1.354.678-2.437.678h-1.353L28.7 22.672h2.166c1.624 0 2.436.543 2.436 1.765 0 .815-.27 1.358-.812 1.765-.541.407-1.354.679-2.301.679h-3.385c-.947 0-1.76-.272-2.301-.679-.542-.407-.812-1.086-.812-1.9 0-.408.135-.951.406-1.63l.406-.814 2.166-5.567h-.27c-1.355 0-2.167-.543-2.167-1.629 0-.814.271-1.357.812-1.9.542-.408 1.354-.68 2.302-.68h.812l.948-2.579.135-.543c.542-1.493 1.49-2.172 2.843-2.172.541 0 .948.136 1.354.543.406.407.541.815.541 1.222 0 .543-.135 1.086-.541 1.9l-.542 1.63zM48.33 22.536h2.166c.812 0 1.49.136 1.895.408.406.271.542.679.542 1.357 0 .815-.27 1.358-.812 1.901-.542.407-1.354.679-2.437.679h-3.385c-1.083 0-1.76-.407-2.166-1.222a3.33 3.33 0 0 1-2.572 1.222h-2.707c-1.083 0-2.03-.407-2.708-1.086-.812-.68-1.083-1.63-1.083-2.716 0-.678.136-1.357.542-2.172l2.572-6.516c.677-1.765 1.76-2.716 2.978-2.716.542 0 1.083.136 1.354.544.406.407.541.814.541 1.221 0 .408-.135.815-.27 1.358l-.136.543-2.03 5.023-.271.543c-.135.272-.135.543-.135.68 0 .542.406.95 1.083.95 1.624 0 2.572-.68 3.113-1.901l2.437-5.974c.677-1.765 1.76-2.715 2.978-2.715.542 0 .948.136 1.354.543.406.407.541.815.541 1.358 0 .407-.135.95-.541 1.9l-2.843 6.788zm10.83.408h.677c.812 0 1.49-.272 1.76-.95l1.354-3.395c.135-.407.27-.678.27-.95 0-.407-.135-.679-.541-.95-.27-.272-.677-.408-1.219-.408-.947 0-1.895.543-2.707 1.63-.812 1.086-1.218 2.172-1.218 3.394.135 1.086.541 1.629 1.624 1.629zm7.175-.408h2.301c1.625 0 2.437.543 2.437 1.765 0 .815-.27 1.358-.947 1.765-.542.408-1.354.679-2.437.679h-2.572c-1.083 0-1.76-.407-2.302-1.222-.812.815-1.76 1.222-2.707 1.222H57.67c-1.49 0-2.572-.543-3.52-1.493-.947-.95-1.354-2.308-1.354-3.937 0-2.444.813-4.752 2.573-6.653 1.76-2.036 3.655-2.987 5.82-2.987 1.625 0 2.844.544 3.791 1.63l4.332-10.59C70.125.95 71.072 0 72.426 0c.541 0 1.083.136 1.489.543.406.407.542.815.542 1.358 0 .407-.136.814-.271 1.357l-.271.543-7.581 18.735zm9.206 8.96h-2.573c-2.707 0-4.06.815-4.06 2.716 0 .679.135 1.086.54 1.493.407.408.948.543 1.49.543.812 0 1.624-.407 2.301-1.086.812-.679 1.49-1.9 2.302-3.665zm6.904-3.665h2.301c1.625 0 2.437.543 2.437 1.63 0 .814-.27 1.357-.812 1.764-.542.407-1.354.679-2.437.679h-3.114c-.406 1.086-1.083 2.58-2.03 4.344C77.029 39.371 74.592 41 71.343 41c-2.03 0-3.655-.679-5.009-1.765-1.354-1.222-2.03-2.715-2.03-4.48 0-1.222.405-2.444 1.082-3.53.677-1.086 1.76-1.9 2.843-2.444 1.354-.678 3.385-.95 6.092-.95h3.114l.541-1.357a6.723 6.723 0 0 1-2.572.543c-1.354 0-2.572-.408-3.384-1.087-.812-.678-1.354-1.493-1.354-2.715 0-.679.27-1.629.812-2.987l2.166-5.158.271-.544c.677-1.493 1.625-2.172 2.843-2.172.541 0 1.083.136 1.489.543.406.408.542.815.542 1.358 0 .407-.136.95-.542 1.765l-1.895 4.48c-.271.679-.406 1.222-.406 1.358 0 .678.406.95 1.218.95.542 0 1.218-.136 1.76-.543.677-.407 1.083-.679 1.218-1.222l2.572-6.245.136-.543c.541-1.493 1.624-2.172 2.978-2.172.542 0 1.083.136 1.354.543.406.407.541.814.541 1.357 0 .408-.135.815-.27 1.222l-.271.543-4.738 12.083zm8.258-6.924a2.392 2.392 0 0 0 2.03 1.086c.542 0 1.083-.135 1.49-.543.54-.407 1.082-1.086 1.488-1.9.407-.815.677-1.63.677-2.308 0-.543-.135-.95-.406-1.358-.27-.407-.677-.543-1.218-.543-1.083 0-2.03.815-2.708 2.58l-1.353 2.986zm3.925-8.96c.542-.136 1.083-.272 1.49-.272 1.489 0 2.572.544 3.52 1.63.947 1.086 1.353 2.58 1.353 4.344 0 3.394-1.218 6.11-3.79 8.146-.948.679-1.896.95-2.843.95h-1.76c-1.219 0-2.302-.407-3.114-1.358-.541.95-1.354 1.358-2.437 1.358-.541 0-.947-.136-1.353-.543-.406-.407-.542-.815-.542-1.358 0-.407.136-.814.27-1.357l.272-.543L93.544 2.85l.271-.543C94.357.815 95.305.136 96.523.136c.541 0 1.083.136 1.353.543.407.407.542.814.542 1.357 0 .408-.135.815-.27 1.358l-.272.543-3.249 8.01zM108.3 22.944h.407c1.083 0 1.76-.408 2.03-1.222l1.354-3.123c.135-.407.27-.814.27-1.086 0-.271-.135-.543-.405-.814-.407-.272-.813-.408-1.219-.408-.947 0-1.76.543-2.707 1.494-.813 1.086-1.354 2.172-1.354 3.258 0 1.358.541 1.9 1.624 1.9zm7.04-.408h2.166c1.624 0 2.437.543 2.437 1.765 0 .815-.271 1.358-.813 1.901-.541.407-1.353.679-2.436.679h-2.572c-1.083 0-1.896-.407-2.302-1.358-.947.815-1.895 1.358-2.843 1.358h-2.166c-1.489 0-2.572-.543-3.52-1.494-.947-.95-1.353-2.308-1.353-4.072 0-2.444.812-4.752 2.572-6.653 1.76-1.9 3.655-2.987 5.821-2.987 1.625 0 2.843.544 3.655 1.765.677-.95 1.49-1.493 2.572-1.493.542 0 1.083.136 1.49.543.406.407.54.815.54 1.358 0 .407-.134.814-.27 1.357l-.27.543-2.708 6.788zm9.34 8.96h-2.571c-2.708 0-4.062.815-4.062 2.716 0 .679.136 1.086.542 1.493.406.408.812.543 1.49.543.811 0 1.624-.407 2.3-1.086.677-.679 1.49-1.9 2.302-3.665zm6.905-3.665h2.301c1.625 0 2.437.543 2.437 1.63 0 .814-.27 1.357-.812 1.764-.542.407-1.354.679-2.437.679h-3.114c-.406 1.086-1.083 2.58-2.03 4.344-1.76 3.123-4.197 4.752-7.446 4.752-2.03 0-3.655-.679-5.009-1.765-1.353-1.222-2.03-2.715-2.03-4.48 0-1.222.406-2.444 1.083-3.53.677-1.086 1.76-1.9 2.843-2.444 1.353-.678 3.384-.95 6.091-.95h3.114l.542-1.357a6.723 6.723 0 0 1-2.573.543c-1.353 0-2.572-.408-3.384-1.087-.812-.678-1.354-1.493-1.354-2.715 0-.679.271-1.629.813-2.987l2.166-5.158.27-.544c.677-1.493 1.625-2.172 2.843-2.172.542 0 1.083.136 1.49.543.405.408.54.815.54 1.358 0 .407-.135.95-.54 1.765l-1.896 4.48c-.27.679-.406 1.222-.406 1.358 0 .678.406.95 1.218.95.542 0 1.219-.136 1.76-.543.677-.407 1.083-.679 1.219-1.222l2.572-6.245.27-.543c.542-1.493 1.625-2.172 2.843-2.172.542 0 1.083.136 1.49.543.406.407.541.814.541 1.357 0 .408-.135.815-.27 1.222l-.272.543-4.873 12.083z"/>
</svg>
